<svg xmlns="http://www.w3.org/2000/svg" width="24" height="24" x="0" y="0" viewBox="0 0 32 32" fill="currentColor">
    <g>
        <path
            d="M25.111 25.148A2.855 2.855 0 0 1 22.26 28H8.778a2.855 2.855 0 0 1-2.852-2.852V7.814a2.855 2.855 0 0 1 2.852-2.851h9.186a.997.997 0 0 0 1-1 1 1 0 0 0-1-1H8.778a4.858 4.858 0 0 0-4.852 4.851v17.334A4.858 4.858 0 0 0 8.778 30h13.481a4.858 4.858 0 0 0 4.852-4.852V12.11a1 1 0 1 0-2 0z">
        </path>
        <path
            d="M21.296 20.296h-7.703a1 1 0 1 0 0 2h7.703a1 1 0 1 0 0-2zM21.296 15.481h-7.703a1 1 0 1 0 0 2h7.703a1 1 0 1 0 0-2zM9.76 15.481h-.01c-.552 0-.994.448-.994 1s.452 1 1.005 1a1 1 0 1 0 0-2zM9.76 20.296h-.01c-.552 0-.994.447-.994 1s.452 1 1.005 1a1 1 0 1 0 0-2zM21.296 10.667h-7.703a1 1 0 1 0 0 2h7.703a1 1 0 1 0 0-2zM9.76 10.667h-.01c-.552 0-.994.447-.994 1s.452 1 1.005 1a1 1 0 1 0 0-2zM24.185 2a1 1 0 0 0-1 1v1.889h-1.889a1 1 0 0 0-1 1 1.01 1.01 0 0 0 1 1h1.89v1.888a1.01 1.01 0 0 0 1 1 1 1 0 0 0 1-1V6.89h1.888a1 1 0 1 0 0-2h-1.889V3a1 1 0 0 0-1-1z">
        </path>
    </g>
</svg>