<svg xmlns="http://www.w3.org/2000/svg" width="24" height="24" x="0" y="0" viewBox="0 0 24 24" fill="green">
    <g>
        <g>
            <path
                d="M16.707 10.007a1 1 0 0 0-1.414-1.414l-4.68 4.68-1.893-1.967a1 1 0 1 0-1.44 1.388l2.6 2.7a1 1 0 0 0 1.427.013z">
            </path>
            <path fill-rule="evenodd"
                d="M12 1C5.925 1 1 5.925 1 12s4.925 11 11 11 11-4.925 11-11S18.075 1 12 1zM3 12a9 9 0 1 1 18 0 9 9 0 0 1-18 0z"
                clip-rule="evenodd">
            </path>
        </g>
    </g>
</svg>