<svg xmlns="http://www.w3.org/2000/svg" id="edit" style="color: var(--text_color)" width="24" height="24" x="0" y="0" viewBox="0 0 64 64" fill="currentColor">
    <g>
        <g>
            <path fill-rule="evenodd"
                d="M56.365 3.678a5.73 5.73 0 0 0-8.104 0L20.564 31.375a2 2 0 0 0-.555 1.067l-1.978 11.21a2 2 0 0 0 2.317 2.318l11.21-1.979a2 2 0 0 0 1.067-.555l27.697-27.697a5.73 5.73 0 0 0 0-8.104zm-5.276 2.829a1.73 1.73 0 0 1 2.447 0l3.957 3.956a1.73 1.73 0 0 1 0 2.448l-.564.564-6.404-6.404zm-3.392 3.392 6.404 6.404-22.89 22.89-6.404-6.404zm-25.23 31.635 4.613-.814-3.8-3.8z"
                clip-rule="evenodd"></path>
            <path
                d="M50 32v24a2 2 0 0 1-2 2H8a2 2 0 0 1-2-2V16a2 2 0 0 1 2-2h24a2 2 0 1 0 0-4H8a6 6 0 0 0-6 6v40a6 6 0 0 0 6 6h40a6 6 0 0 0 6-6V32a2 2 0 1 0-4 0z">
            </path>
        </g>
    </g>
</svg>