<svg xmlns="http://www.w3.org/2000/svg" width="24" height="24" x="0" y="0" viewBox="0 0 25 24" fill="currentColor">
    <g>
        <g>
            <path
                d="M20.407 20c-.682 0-1.285.344-1.646.868l-4.467-2.233c.068-.201.113-.412.113-.635s-.045-.433-.113-.634l4.467-2.234A1.998 1.998 0 0 0 22.407 14c0-1.103-.897-2-2-2s-2 .897-2 2c0 .062.013.121.018.182l-4.682 2.341A1.979 1.979 0 0 0 12.407 16c-1.103 0-2 .897-2 2s.897 2 2 2c.516 0 .982-.201 1.337-.523l4.682 2.341c-.006.061-.019.12-.019.182 0 1.103.897 2 2 2s2-.897 2-2-.897-2-2-2zm0-7a1.001 1.001 0 1 1-1 1c0-.551.448-1 1-1zm-8 6a1.001 1.001 0 0 1 0-2 1.001 1.001 0 0 1 0 2zm8 4a1.001 1.001 0 0 1 0-2 1.001 1.001 0 0 1 0 2z">
            </path>
            <path
                d="M16.907 23h-13a.5.5 0 0 1-.5-.5v-19a.5.5 0 0 1 .5-.5h2.5v.5a.5.5 0 0 0 .5.5h9a.5.5 0 0 0 .5-.5V3h2.5a.5.5 0 0 1 .5.5v7a.5.5 0 0 0 1 0v-7c0-.827-.673-1.5-1.5-1.5h-2.592c-.207-.581-.757-1-1.408-1h-1.774c-.354-.61-1.009-1-1.726-1s-1.372.39-1.726 1H7.907c-.65 0-1.2.419-1.408 1H3.907c-.827 0-1.5.673-1.5 1.5v19c0 .827.673 1.5 1.5 1.5h13a.5.5 0 0 0 0-1zm-9-21H10c.212 0 .4-.133.47-.332.143-.399.52-.668.938-.668s.795.269.937.668a.5.5 0 0 0 .471.332h2.092a.5.5 0 0 1 .5.5V3h-8v-.5a.5.5 0 0 1 .5-.5z">
            </path>
        </g>
    </g>
</svg>