<svg xmlns="http://www.w3.org/2000/svg" width="24" height="24" x="0" y="0" viewBox="0 0 24 24" fill="currentColor">
    <g>
        <path fill-rule="evenodd"
            d="M21 7.828V20a3 3 0 0 1-3 3H6a3 3 0 0 1-3-3V4a3 3 0 0 1 3-3h8.172a3 3 0 0 1 2.12.879l3.83 3.828A3 3 0 0 1 21 7.828zM20 8v12a2 2 0 0 1-2 2H6a2 2 0 0 1-2-2V4a2 2 0 0 1 2-2h8v3.5A2.5 2.5 0 0 0 16.5 8zm-5-2.5V2.18c.216.098.415.235.586.406l3.828 3.828A2 2 0 0 1 19.82 7H16.5A1.5 1.5 0 0 1 15 5.5zm-3.354 13.354a.5.5 0 0 0 .708 0l3-3a.5.5 0 0 0-.708-.708L12.5 17.293V11.5a.5.5 0 0 0-1 0v5.793l-2.146-2.147a.5.5 0 0 0-.708.708z"
            clip-rule="evenodd"></path>
    </g>
</svg>