<svg version="1.0" xmlns="http://www.w3.org/2000/svg" width="24" height="24" viewBox="0 0 64 71">
    <g transform="matrix(0.004, 0, 0, -0.004, -9.040466, 78.226403)" fill="currentColor" stroke="none">
        <path d="M4235 19569 c-331 -4 -557 -10 -585 -17 -386 -93 -705 -377 -831
-740 -11 -32 -30 -102 -42 -157 l-22 -100 -1 -6545 c0 -3600 3 -6595 7 -6656
27 -406 254 -756 613 -945 57 -30 136 -60 211 -81 l120 -33 1330 -5 1330 -5 2
-695 c2 -419 7 -722 13 -764 16 -105 84 -302 134 -386 196 -331 535 -546 896
-569 58 -4 2182 -6 4720 -6 4356 2 4619 3 4695 19 106 24 153 40 260 90 332
157 553 425 629 766 l21 95 0 6510 c0 7073 4 6584 -56 6770 -59 184 -156 342
-291 471 -189 181 -401 281 -668 314 -54 6 -529 10 -1337 10 l-1252 0 -3 833
-4 832 -26 101 c-112 424 -337 680 -738 837 -156 61 167 57 -4410 60 -2296 1
-4418 -1 -4715 -4z m8913 -558 c109 -31 186 -77 262 -155 82 -84 89 -95 134
-211 l31 -80 3 -827 3 -828 -3068 -1 c-1687 0 -3077 -2 -3088 -4 -11 -1 -45
-6 -75 -9 -265 -28 -567 -210 -742 -446 -110 -149 -189 -335 -228 -540 -7 -34
-11 -1880 -12 -5374 -1 -2926 -4 -5408 -5 -5513 l-4 -193 -1254 0 c-1067 0
-1265 2 -1332 15 -182 34 -325 146 -406 316 -25 52 -50 121 -56 154 -8 43 -11
1872 -11 6637 l0 6576 25 79 c42 133 118 238 229 319 55 40 173 88 236 96 14
2 2115 3 4670 3 3700 -1 4654 -4 4688 -14z m-4238 -2648 c0 -5 -35 -45 -78
-90 -42 -45 -101 -108 -131 -140 -30 -32 -102 -107 -161 -168 -58 -60 -281
-297 -495 -524 -215 -228 -480 -510 -590 -625 -180 -189 -374 -397 -493 -529
-23 -26 -45 -47 -48 -47 -2 0 -3 366 -2 813 4 906 -1 844 75 990 48 91 169
215 249 255 61 31 144 58 199 65 56 8 1475 7 1475 0z m2149 -10 c-7 -10 -63
-70 -124 -133 -61 -63 -145 -151 -186 -195 -41 -44 -106 -114 -145 -155 -39
-41 -97 -104 -129 -140 -54 -59 -223 -239 -510 -540 -139 -145 -526 -557 -715
-760 -80 -85 -188 -200 -241 -255 -53 -55 -264 -278 -469 -495 -205 -217 -452
-478 -549 -580 -97 -102 -199 -210 -227 -240 -47 -52 -780 -836 -830 -890
l-24 -25 0 752 0 752 123 128 c67 71 225 239 352 373 126 135 347 369 491 520
143 151 289 307 324 345 35 39 103 111 150 160 47 50 148 158 226 240 359 382
498 530 619 656 72 74 208 217 303 317 l174 182 700 0 c666 0 700 -1 687 -17z
m2131 8 c0 -4 -10 -16 -21 -27 -12 -10 -159 -165 -327 -344 -302 -321 -411
-436 -812 -860 -113 -119 -284 -302 -381 -406 -97 -104 -291 -311 -430 -459
-140 -149 -315 -336 -389 -415 -74 -79 -252 -268 -395 -420 -143 -152 -291
-310 -330 -352 -86 -93 -832 -884 -964 -1023 -124 -129 -359 -379 -536 -570
-77 -82 -178 -190 -225 -240 -243 -254 -480 -505 -710 -750 -515 -549 -676
-721 -712 -763 -21 -23 -40 -42 -43 -42 -3 0 -5 328 -5 729 l0 728 22 29 c12
16 58 67 102 114 45 47 142 150 216 230 74 80 210 224 301 320 91 96 208 220
260 276 247 265 666 712 774 824 149 156 390 412 475 505 34 39 106 115 159
170 53 55 125 132 160 170 36 39 137 146 225 240 223 234 308 325 411 435 148
159 720 764 875 925 58 61 243 256 410 435 168 179 352 375 410 437 l105 112
688 0 c378 0 687 -3 687 -8z m3514 -6 c148 -28 276 -106 358 -217 78 -107 84
-118 110 -199 l23 -74 0 -6490 0 -6490 -23 -64 c-42 -116 -140 -247 -226 -305
-32 -21 -94 -52 -139 -69 l-82 -32 -4630 -2 c-5145 -2 -4707 -9 -4860 67 -138
69 -243 188 -293 335 l-27 80 -3 697 -3 698 3113 0 c2077 0 3135 4 3178 10
358 57 718 350 845 688 15 40 39 112 54 160 l26 87 2 5555 c2 3055 5 5561 8
5568 7 19 2464 18 2569 -3z m-3122 -1087 l-3 -722 -26 -30 c-14 -17 -143 -155
-287 -306 -144 -151 -367 -387 -496 -525 -129 -137 -278 -295 -330 -350 -53
-55 -122 -129 -155 -165 -32 -36 -120 -128 -195 -205 -74 -77 -193 -203 -265
-280 -71 -77 -180 -191 -240 -255 -61 -63 -214 -225 -340 -360 -127 -134 -275
-292 -331 -350 -85 -89 -303 -321 -644 -685 -41 -44 -160 -170 -265 -280 -104
-110 -327 -347 -495 -525 -168 -179 -397 -422 -510 -540 -113 -119 -270 -285
-350 -370 -80 -85 -183 -195 -230 -245 -47 -49 -132 -139 -190 -200 -103 -108
-180 -188 -350 -370 -47 -49 -141 -148 -210 -220 -144 -150 -717 -759 -742
-790 -15 -19 -16 24 -17 680 -1 651 0 702 17 726 22 34 166 190 588 639 33 36
98 106 144 155 157 169 525 560 630 670 58 61 159 169 225 240 66 72 165 177
221 235 55 58 219 231 364 385 145 154 334 354 419 445 179 189 450 477 531
565 30 32 96 102 146 155 49 52 124 131 164 175 75 80 232 247 565 599 99 105
252 268 340 361 88 94 304 323 481 510 176 187 416 444 534 570 266 286 673
719 794 845 51 52 181 192 291 310 110 118 204 218 210 222 5 4 10 8 10 8 0 0
-1 -325 -3 -722z m0 -2210 l-4 -692 -25 -31 c-22 -26 -294 -314 -609 -645 -50
-52 -131 -138 -180 -190 -49 -52 -138 -147 -199 -210 -209 -219 -810 -857
-1079 -1145 -72 -77 -180 -192 -241 -255 -61 -63 -259 -272 -440 -465 -181
-192 -377 -399 -435 -460 -163 -169 -303 -317 -440 -465 -69 -74 -165 -178
-215 -230 -49 -53 -117 -125 -150 -160 -33 -36 -179 -191 -325 -345 -145 -154
-370 -392 -499 -530 -130 -137 -286 -302 -347 -365 -104 -109 -164 -172 -400
-420 -54 -57 -144 -152 -199 -210 -55 -58 -208 -220 -340 -360 -132 -140 -283
-300 -335 -355 -53 -55 -122 -127 -153 -160 l-57 -60 0 687 0 688 52 57 c73
82 284 308 408 438 58 61 177 186 265 280 88 93 201 212 251 265 49 52 126
133 170 180 217 234 187 202 614 655 52 55 151 159 220 230 69 72 175 184 235
250 127 138 155 168 530 565 153 162 357 378 453 480 97 102 210 221 252 265
42 44 146 155 232 246 86 92 174 184 196 205 22 22 217 228 433 459 216 231
472 503 568 605 97 102 205 216 241 255 36 38 115 121 175 185 61 63 137 145
169 180 33 36 105 112 160 170 56 58 135 141 176 185 41 44 149 159 240 255
90 96 191 204 225 240 33 36 124 133 202 215 77 83 151 162 163 178 12 15 27
27 33 27 9 0 11 -166 9 -692z m-2 -2153 l-1 -668 -30 -36 c-18 -20 -79 -85
-138 -146 -133 -137 -546 -575 -835 -885 -121 -129 -276 -293 -345 -365 -69
-71 -160 -166 -201 -210 -41 -44 -161 -170 -266 -280 -105 -110 -228 -241
-275 -291 -46 -50 -192 -204 -324 -344 -132 -139 -287 -303 -344 -364 -57 -61
-150 -158 -205 -216 -257 -268 -507 -531 -792 -834 -170 -180 -381 -404 -469
-497 -88 -92 -270 -284 -404 -426 -135 -142 -300 -315 -369 -385 l-124 -128
-619 0 c-340 0 -619 3 -619 7 0 4 48 57 108 117 142 147 465 489 907 961 92
99 229 243 304 321 124 128 307 321 531 559 47 49 124 130 171 180 47 49 181
194 299 320 118 127 262 280 320 340 137 142 277 289 371 390 41 43 155 165
254 270 99 105 279 296 400 425 121 129 270 287 330 350 61 63 168 178 240
255 135 147 390 417 860 914 154 163 379 402 500 531 121 129 276 293 345 365
69 72 190 202 270 288 79 86 146 155 148 153 2 -2 3 -304 2 -671z m0 -2085 l0
-620 -69 -77 c-37 -43 -133 -146 -212 -228 -79 -83 -254 -267 -389 -410 -135
-143 -295 -312 -355 -375 -61 -63 -149 -155 -195 -205 -47 -49 -133 -139 -191
-200 -58 -60 -145 -153 -194 -205 -49 -52 -134 -142 -190 -200 -345 -363 -491
-517 -735 -775 -454 -482 -643 -680 -656 -688 -7 -4 -276 -6 -598 -5 l-585 3
107 110 c59 61 139 144 177 185 39 41 167 177 285 300 118 124 312 329 430
455 118 126 258 274 311 330 153 161 416 439 523 554 55 58 193 203 307 321
113 118 230 242 260 275 29 33 106 114 169 180 64 66 194 203 290 305 212 226
263 280 510 540 189 199 225 237 456 481 250 265 539 568 542 569 1 0 2 -279
2 -620z m0 -2035 l0 -608 -38 -46 c-39 -49 -113 -127 -467 -496 -121 -126
-251 -264 -290 -305 -99 -106 -252 -267 -374 -392 l-104 -108 -586 0 -586 0
50 48 c28 26 160 164 295 307 427 452 612 647 716 755 55 58 181 191 279 295
312 332 487 517 596 630 58 61 195 205 305 321 109 116 200 210 202 209 1 -1
2 -276 2 -610z m0 -1433 c0 -40 -43 -181 -73 -237 -78 -147 -283 -285 -424
-285 l-34 0 53 53 c29 28 118 122 198 207 289 308 280 300 280 262z"></path>
    </g>
</svg>