<svg xmlns="http://www.w3.org/2000/svg" width="24" height="24" x="0" y="0" viewBox="0 0 60 60" fill="currentColor">
    <g>
        <path
            d="M17 38a7 7 0 1 0 7 7 7.008 7.008 0 0 0-7-7Zm0 12a5 5 0 1 1 5-5 5.006 5.006 0 0 1-5 5ZM17 14.5a5.5 5.5 0 1 0-5.5 5.5 5.506 5.506 0 0 0 5.5-5.5ZM11.5 18a3.5 3.5 0 1 1 3.5-3.5 3.5 3.5 0 0 1-3.5 3.5ZM25.5 5a5.5 5.5 0 1 0 5.5 5.5A5.506 5.506 0 0 0 25.5 5Zm0 9a3.5 3.5 0 1 1 3.5-3.5 3.5 3.5 0 0 1-3.5 3.5ZM44 16.5a5.5 5.5 0 1 0-5.5 5.5 5.506 5.506 0 0 0 5.5-5.5Zm-9 0a3.5 3.5 0 1 1 3.5 3.5 3.5 3.5 0 0 1-3.5-3.5Z">
        </path>
        <path
            d="M57 38.822v-3.851l-.912-31a4.09 4.09 0 0 0-8.176 0l-.2 6.754C43.923 5.314 36.955 0 24.16 0 8.049 0 1.19 6.981.144 13.514A11.125 11.125 0 0 0 7.878 25.93c.407.2 3.792 1.906 3.792 4.07 0 1.894-2.691 3.556-3.788 4.068A11.125 11.125 0 0 0 .144 46.486C1.19 53.019 8.049 60 24.16 60c9.73 0 17.183-3.007 22.184-8.929a14.835 14.835 0 0 0 2.082 1.747C51 54.625 51 58.948 51 58.992a1 1 0 0 0 .646.943A1.021 1.021 0 0 0 52 60a1 1 0 0 0 .753-.343C53.05 59.318 60 51.284 60 46a9.164 9.164 0 0 0-3-7.178ZM49 38v-2h6v2Zm3-36a2.079 2.079 0 0 1 2.088 2.028L54.97 34h-5.94l.882-29.972A2.079 2.079 0 0 1 52 2ZM24.16 58C9.307 58 3.035 51.889 2.118 46.169A9.164 9.164 0 0 1 8.562 35.95a.8.8 0 0 0 .1-.039C8.867 35.818 13.67 33.6 13.67 30s-4.8-5.818-5.008-5.911a.8.8 0 0 0-.1-.039 9.164 9.164 0 0 1-6.444-10.219C3.035 8.111 9.307 2 24.16 2 35.4 2 43.284 6.163 47.606 14.367l-.356 12.121a5.5 5.5 0 1 0-.243 8.245l-.007.238v3.844A9.18 9.18 0 0 0 44 46a6.47 6.47 0 0 0 1.071 3.468C40.464 55.125 33.437 58 24.16 58ZM47 30.5a3.5 3.5 0 1 1-3.5-3.5 3.5 3.5 0 0 1 3.5 3.5Zm5.722 26.026a8.55 8.55 0 0 0-3.148-5.345 11.244 11.244 0 0 1-2.474-2.262A4.7 4.7 0 0 1 46 46a7 7 0 0 1 2.759-6h6.473A6.983 6.983 0 0 1 58 46c0 2.989-3.072 7.651-5.278 10.526Z">
        </path>
    </g>
</svg>