<svg xmlns="http://www.w3.org/2000/svg" width="24" height="24" x="0" y="0" viewBox="0 0 20 20" fill="currentColor">
    <g>
        <path
            d="M1.553 8.9A1 1 0 0 0 2.9 8.447L3.118 8h3.764l.223.447A1 1 0 1 0 8.9 7.553l-3-6a1.042 1.042 0 0 0-1.79 0l-3 6A1 1 0 0 0 1.553 8.9zM5 4.236 5.882 6H4.118zM8 17H4.414l4.293-4.293A1 1 0 0 0 8 11H2a1 1 0 0 0 0 2h3.586l-4.293 4.293A1 1 0 0 0 2 19h6a1 1 0 0 0 0-2zM18.707 14.293a1 1 0 0 0-1.414 0L16 15.586V2a1 1 0 0 0-2 0v13.586l-1.293-1.293a1 1 0 0 0-1.414 1.414l3 3a1 1 0 0 0 1.414 0l3-3a1 1 0 0 0 0-1.414z">
        </path>
    </g>
</svg>